<svg id="Layer" enable-background="new 0 0 64 64" height="512" viewBox="0 0 64 64" width="512" xmlns="http://www.w3.org/2000/svg"><path d="m32 8c-13.234 0-24 10.767-24 24s10.766 24 24 24c13.233 0 24-10.767 24-24s-10.767-24-24-24zm0 44c-11.028 0-20-8.972-20-20s8.972-20 20-20 20 8.972 20 20-8.972 20-20 20z"/><path d="m28 23h-8c-1.104 0-2 .896-2 2v8c0 1.104.896 2 2 2h5.522c-.423.847-1.106 1.556-1.994 2l-.423.212c-.988.494-1.388 1.695-.894 2.684.351.7 1.057 1.104 1.79 1.104.301 0 .606-.067.894-.212l.422-.211c2.889-1.444 4.683-4.348 4.683-7.577v-8c0-1.104-.896-2-2-2zm-6 4h4v4h-4z"/><path d="m44 23h-8c-1.104 0-2 .896-2 2v8c0 1.104.896 2 2 2h5.522c-.423.847-1.106 1.556-1.993 1.999l-.424.212c-.988.494-1.389 1.695-.895 2.684.352.701 1.058 1.105 1.792 1.105.3 0 .605-.067.893-.211l.424-.212c2.887-1.444 4.681-4.348 4.681-7.577v-8c0-1.104-.896-2-2-2zm-6 4h4v4h-4z"/></svg>